<mxfile host="Electron" modified="2024-02-26T10:49:54.901Z" agent="Mozilla/5.0 (Windows NT 10.0; Win64; x64) AppleWebKit/537.36 (KHTML, like Gecko) draw.io/23.1.5 Chrome/120.0.6099.109 Electron/28.1.0 Safari/537.36" etag="I-uYlxSSno88M3UBd9wZ" version="23.1.5" type="device">
  <diagram name="第 1 页" id="Z4aryAzgDAfQOTbotfar">
    <mxGraphModel dx="1221" dy="799" grid="1" gridSize="10" guides="1" tooltips="1" connect="1" arrows="1" fold="1" page="1" pageScale="1" pageWidth="827" pageHeight="1169" math="0" shadow="0">
      <root>
        <mxCell id="0" />
        <mxCell id="1" parent="0" />
        <mxCell id="da9hM0NtjJ8L-2BFUvDc-1" value="" style="ellipse;whiteSpace=wrap;html=1;aspect=fixed;" vertex="1" parent="1">
          <mxGeometry x="310" y="60" width="40" height="40" as="geometry" />
        </mxCell>
        <mxCell id="da9hM0NtjJ8L-2BFUvDc-2" value="分词" style="rounded=0;whiteSpace=wrap;html=1;" vertex="1" parent="1">
          <mxGeometry x="270" y="140" width="120" height="60" as="geometry" />
        </mxCell>
        <mxCell id="da9hM0NtjJ8L-2BFUvDc-3" value="建立corpus，词表包含" style="rounded=0;whiteSpace=wrap;html=1;" vertex="1" parent="1">
          <mxGeometry x="270" y="230" width="120" height="60" as="geometry" />
        </mxCell>
      </root>
    </mxGraphModel>
  </diagram>
</mxfile>
